<svg width="903" height="887" viewBox="0 0 903 887" fill="none" xmlns="http://www.w3.org/2000/svg">
<path fill-rule="evenodd" clip-rule="evenodd" d="M781 794.341C783.362 782.037 785.727 772.53 788.095 765.818C790.462 759.106 795.034 748.947 801.811 735.341C807.165 748.093 810.791 757.471 812.689 763.473C814.587 769.476 815.533 774.555 815.527 778.712C815.735 774.74 816.839 770.442 818.838 765.818C820.837 761.193 824.463 754.551 829.716 745.891C835.531 756.356 839.631 764.3 842.014 769.725C844.397 775.15 847.392 783.355 851 794.341H781ZM616 824.341C617.957 812.037 619.917 802.53 621.878 795.818C623.84 789.106 627.628 778.947 633.243 765.341C637.679 778.093 640.684 787.471 642.257 793.473C643.83 799.476 644.613 804.555 644.608 808.712C644.78 804.74 645.695 800.442 647.351 795.818C649.008 791.193 652.012 784.551 656.365 775.891C661.183 786.356 664.58 794.3 666.554 799.725C668.529 805.15 671.011 813.355 674 824.341H616Z" fill="#FF946A"/>
<path fill-rule="evenodd" clip-rule="evenodd" d="M555.738 802.793V750.192H611.478V802.793" fill="#F4E5AD"/>
<path fill-rule="evenodd" clip-rule="evenodd" d="M668.891 805.031V772.016H741.91V793.28V816.223" fill="#F4E5AD"/>
<path fill-rule="evenodd" clip-rule="evenodd" d="M741.354 882.254V792.72H842.801V881.745" fill="#F4E5AD"/>
<path fill-rule="evenodd" clip-rule="evenodd" d="M550.164 837.487V783.767H561.312V793.28H568.001V783.767H579.706V793.28H586.395V783.767H598.101V793.28H604.789V783.767H618.724V840.845" fill="#AFA26E"/>
<path fill-rule="evenodd" clip-rule="evenodd" d="M833.883 882.254V750.192H888.508V881.504" fill="#DACA8B"/>
<path fill-rule="evenodd" clip-rule="evenodd" d="M539.018 836.368V881.695H633.776V867.025C633.776 850.094 647.502 836.368 664.433 836.368C681.364 836.368 695.09 850.094 695.09 867.025V881.695H746.371V793.28H731.879L729.649 805.031H719.616V793.28H700.107V805.031H690.073V793.28H671.122V805.031H661.646V793.28H642.694V811.187H624.3L607.021 836.368H539.018Z" fill="#DACA8B"/>
<path fill-rule="evenodd" clip-rule="evenodd" d="M534 871.062H638.792V882.254H534V871.062ZM692.302 871.062H751.387V882.254H692.302V871.062Z" fill="#AFA26E"/>
<path fill-rule="evenodd" clip-rule="evenodd" d="M568.002 825.176V807.252C568.002 804.789 569.998 802.793 572.461 802.793C574.924 802.793 576.92 804.789 576.92 807.252V825.176H568.002ZM775.913 853.156V835.231C775.913 832.769 777.909 830.772 780.372 830.772C782.835 830.772 784.831 832.769 784.831 835.231V853.156H775.913ZM591.97 825.176V807.252C591.97 804.789 593.967 802.793 596.429 802.793C598.892 802.793 600.889 804.789 600.889 807.252V825.176H591.97ZM799.881 853.156V835.231C799.881 832.769 801.878 830.772 804.34 830.772C806.803 830.772 808.8 832.769 808.8 835.231V853.156H799.881ZM857.294 802.793V784.869C857.294 782.406 859.29 780.41 861.753 780.41C864.215 780.41 866.212 782.406 866.212 784.869V802.793H857.294ZM857.294 852.036V834.112C857.294 831.65 859.29 829.653 861.753 829.653C864.215 829.653 866.212 831.65 866.212 834.112V852.036H857.294ZM715.713 871.062V853.125C715.713 848.815 719.207 845.321 723.517 845.321C727.827 845.321 731.321 848.815 731.321 853.125V871.062H715.713Z" fill="#334E62"/>
<path fill-rule="evenodd" clip-rule="evenodd" d="M690.231 706.361L707.352 667.933L729.581 717.827C731.291 720.867 732.986 723.821 734.664 726.689C740.767 737.119 750.057 752.228 762.534 772.016C738.413 774.899 719.735 776.341 706.5 776.341C693.264 776.341 674.41 774.899 649.939 772.016C663.719 751.908 673.566 736.799 679.481 726.689C683.123 720.465 686.707 713.689 690.231 706.361ZM542.918 750.192C552.729 740.724 559.418 731.025 562.984 721.094C566.551 711.162 573.612 692.883 584.166 666.254C594.688 692.4 601.748 710.68 605.347 721.094C608.946 731.507 615.449 741.206 624.856 750.192C611.85 752.43 598.101 753.549 583.608 753.549C569.116 753.549 555.552 752.43 542.918 750.192ZM820.504 752.43C830.315 742.963 837.004 733.263 840.571 723.332C844.137 713.401 851.198 695.121 861.752 668.492C872.274 694.639 879.334 712.918 882.933 723.332C886.532 733.745 893.035 743.445 902.442 752.43C889.436 754.669 875.687 755.788 861.194 755.788C846.702 755.788 833.139 754.669 820.504 752.43Z" fill="#334E62"/>
<path fill-rule="evenodd" clip-rule="evenodd" d="M646.398 377.081C659.549 425.071 658.183 463.98 642.301 493.81C626.418 523.64 620.392 561.265 624.224 606.686L663.857 556.262C663.28 585.232 663.642 607.345 664.941 622.603C666.241 637.86 669.043 652.893 673.348 667.7L692.617 625.096C701.011 643.759 710.189 659.325 720.152 671.795C730.115 684.265 746.285 700.425 768.661 720.274C772.857 689.992 774.877 667.001 774.722 651.3C774.568 635.599 772.169 620.228 767.527 605.186L794.767 633.961C796.58 619.254 794.762 605.805 789.314 593.615C783.866 581.424 776.055 564.673 765.883 543.361L808.802 576.227C795.714 535.909 771.901 502.192 737.362 475.076C702.824 447.961 681.694 415.875 673.975 378.82C669.354 376.716 665.235 375.52 661.618 375.233C658.001 374.946 652.927 375.562 646.398 377.081Z" fill="#FF946A"/>
<path fill-rule="evenodd" clip-rule="evenodd" d="M658.338 377.192C664.205 403.605 668.651 425.52 671.676 442.937C673.716 454.68 675.691 471.726 677.602 494.073C679.617 517.636 689.918 539.722 706.675 556.41L721.127 570.803L722.968 563.613C729.397 538.501 725.825 511.874 713.003 489.346C702.087 470.165 693.774 454.512 688.065 442.384C679.246 423.652 671.26 401.341 664.105 375.451L658.338 377.192Z" fill="#FFE676"/>
<path fill-rule="evenodd" clip-rule="evenodd" d="M491 652.998C486.5 664.118 482.235 672.032 478.207 676.738C476.09 679.211 473.39 682.11 470.106 685.436C469.182 686.372 467.673 686.381 466.737 685.457C466 684.728 465.818 683.607 466.288 682.683L471.533 672.361C472.11 671.225 471.657 669.835 470.52 669.258C470.392 669.193 470.258 669.14 470.121 669.1C468.545 668.641 466.858 669.301 466.012 670.707L454.697 689.529C454.127 690.476 452.899 690.782 451.952 690.213C451.283 689.811 450.909 689.056 450.994 688.281L453.314 667.142L469.302 645.341L491 652.998Z" fill="#437BA6"/>
<path fill-rule="evenodd" clip-rule="evenodd" d="M290.999 641.001L205.857 536.341L54.2883 583.329C52.7057 583.82 51.8205 585.501 52.3111 587.083C52.6694 588.239 53.6869 589.066 54.8914 589.181L129.621 596.318L149.085 637.466C149.764 638.901 151.443 639.559 152.916 638.967L197.293 621.124L229.965 646.519C230.488 646.926 231.131 647.148 231.794 647.151L278.656 647.341L290.999 641.001Z" fill="#334E62"/>
<path fill-rule="evenodd" clip-rule="evenodd" d="M392.31 625.839L425.615 674.902L436.941 647.731C438.613 643.722 441.261 640.196 444.646 637.474C455.836 628.475 472.202 630.251 481.201 641.441L491 653.626L481.888 653.498C475.835 653.414 470.194 656.554 467.077 661.744L433.688 717.341L393.923 688.656L396.71 797.246L426.645 827.077L456.742 834.197C458.095 834.517 459.255 835.387 459.941 836.598C461.302 839 460.458 842.052 458.055 843.413L413.456 868.684C413.447 868.69 413.438 868.695 413.428 868.7C401.407 875.492 386.156 871.252 379.365 859.23L347.503 802.831H314.512V862.594L334.093 873.533C335.358 874.24 336.142 875.576 336.142 877.025C336.142 879.234 334.351 881.025 332.142 881.025H263.819C263.093 881.025 262.367 880.981 261.646 880.894C251.778 879.694 244.751 870.721 245.95 860.853L253.004 802.831L148.034 858.732C142.953 861.437 137.428 863.207 131.722 863.956L0 881.254L206.034 726.872L255.11 616.265C255.871 614.55 256.81 612.95 257.901 611.484L256.099 611.486L274.515 175.983C276.739 123.405 319.332 81.5463 371.942 80.2389L649.5 73.341C702.5 71.6743 729 102.008 729 164.341C729 173.712 718.167 223.712 696.5 314.341C710.129 326.404 711.399 347.231 699.337 360.86C698.574 361.722 697.767 362.543 696.918 363.32C696.853 363.38 696.788 363.44 696.724 363.501C694.562 365.534 692.224 367.315 689.752 368.834L690.665 374.146C691.018 376.196 690.873 378.3 690.244 380.282C688.071 387.126 680.763 390.912 673.92 388.739L658.653 383.892L646.702 390.903C645.432 391.648 644.045 392.172 642.599 392.452C635.551 393.819 628.729 389.213 627.362 382.164L623.726 363.413L623.5 363.341L601 314.341L516 246.341L446.659 242.209C437.033 241.636 428.666 248.749 427.682 258.342L391.849 607.878L392.31 625.839Z" fill="#7AC6FF"/>
<path fill-rule="evenodd" clip-rule="evenodd" d="M702.125 260.335C707.276 256.229 719.607 259.735 718.742 269.546C717.878 279.357 710.948 294.953 699.283 285.057C687.618 275.161 696.974 264.441 702.125 260.335ZM607.063 264.051C609.577 257.963 622.063 255.051 626.063 264.051C630.063 273.051 631.563 290.051 616.563 287.051C601.563 284.051 604.548 270.139 607.063 264.051Z" fill="white"/>
<path fill-rule="evenodd" clip-rule="evenodd" d="M698.054 275.142C698.078 273.762 699.217 272.662 700.598 272.686L711.596 272.878C712.977 272.902 714.076 274.041 714.052 275.421C714.028 276.802 712.889 277.901 711.509 277.877L700.51 277.685C699.13 277.661 698.03 276.523 698.054 275.142ZM610.5 275.201C610.524 273.821 611.663 272.721 613.044 272.745L624.042 272.937C625.422 272.961 626.522 274.1 626.498 275.481C626.474 276.861 625.335 277.961 623.955 277.937L612.956 277.745C611.576 277.72 610.476 276.582 610.5 275.201Z" fill="#334E62"/>
<path fill-rule="evenodd" clip-rule="evenodd" d="M252.651 802.254L237 886.341L332.451 885.841C336.869 885.818 340.432 882.217 340.409 877.799C340.402 876.448 340.052 875.12 339.394 873.94L338.174 871.757L318.051 862.229L314.697 802.815L252.651 802.254Z" fill="#437BA6"/>
<path fill-rule="evenodd" clip-rule="evenodd" d="M225.652 517.356L93.6986 538.993C92.0636 539.261 90.9555 540.804 91.2236 542.439C91.4191 543.631 92.3106 544.59 93.4856 544.871L178.848 565.308L185.045 607.359C185.277 608.934 186.7 610.054 188.285 609.909L251.312 604.168L265.571 634.336C266.01 635.263 266.892 635.902 267.909 636.03L326.493 643.396L336.592 654.381C338.158 656.085 340.731 656.394 342.656 655.11C344.559 653.841 345.199 651.342 344.142 649.314L339.714 640.819C339.446 640.306 339.184 639.79 338.927 639.272L296.525 553.72C283.453 527.346 254.699 512.593 225.652 517.356Z" fill="#437BA6"/>
<path fill-rule="evenodd" clip-rule="evenodd" d="M262.85 467.093L201.196 510.888C199.846 511.848 197.973 511.531 197.013 510.18C196.382 509.291 196.282 508.131 196.753 507.148L268.601 357.021L212.173 384.185C210.68 384.904 208.888 384.276 208.169 382.783C207.787 381.99 207.773 381.069 208.13 380.265L272.009 236.368L233.879 256.569C232.415 257.345 230.6 256.787 229.824 255.322C229.381 254.486 229.358 253.489 229.764 252.633L280.249 146.085L262.85 467.093ZM484.044 76.6387L429.721 136.97C427.873 139.022 424.711 139.188 422.659 137.34C421.17 136 420.626 133.9 421.275 132.005L436.555 87.3854L344.497 154.684C342.267 156.313 339.139 155.827 337.509 153.598C336.439 152.134 336.245 150.205 337.004 148.557L368.11 80.9559L484.044 76.6387Z" fill="#334E62"/>
<path fill-rule="evenodd" clip-rule="evenodd" d="M205.999 727.341L162.087 736.079C160.462 736.403 159.407 737.982 159.73 739.607C159.794 739.925 159.908 740.231 160.069 740.512L166.332 751.454L128.875 761.261C127.272 761.681 126.313 763.32 126.732 764.923C126.878 765.481 127.182 765.985 127.608 766.375L135.772 773.857L96.1323 783.962C94.5268 784.371 93.557 786.004 93.9663 787.61C94.2064 788.552 94.8881 789.319 95.7952 789.668L108.546 794.579L65.5127 811.217C63.9673 811.815 63.1989 813.552 63.7964 815.097C64.1643 816.049 64.9902 816.748 65.9892 816.954L82.4312 820.341L205.999 727.341Z" fill="#334E62"/>
<path fill-rule="evenodd" clip-rule="evenodd" d="M638.792 291.942C638.67 297.904 608.376 264.174 570.24 179.902C556.607 149.777 534.415 89.8101 503.664 0L561.805 97.1705L573.642 31.0209L595.829 154.598L613.47 125.01C630.537 227.139 638.978 282.783 638.792 291.942ZM695.855 287.07C693.146 290.806 688.934 255.88 702.099 185.335C706.805 160.117 719.292 112.119 739.561 41.341L733.318 128.99L769.999 92.2085L729.415 180.64L753.61 169.684C719.269 242.202 700.018 281.331 695.855 287.07Z" fill="#334E62"/>
<path d="M696.93 314.377C696.726 314.89 696.145 315.141 695.631 314.937C695.118 314.733 694.867 314.152 695.071 313.639C704.291 290.418 720.765 284.522 743.948 296.113C750.389 299.334 757.058 305.456 764.928 314.887C768.115 318.706 771.456 323.003 775.587 328.54C777.802 331.509 785.492 341.977 786.544 343.397C801.309 363.334 811.102 374.583 821.973 382.623C835.773 392.83 849.118 395.304 863.085 388.931C868.202 386.596 872.818 384.293 876.932 382.02C891.75 373.838 897.129 355.193 888.946 340.375C887.394 337.565 885.41 335.016 883.067 332.821C875.819 326.033 864.441 326.406 857.654 333.654C857.129 334.214 856.641 334.807 856.192 335.43L853.311 339.426C852.988 339.874 852.364 339.975 851.916 339.652C851.468 339.329 851.366 338.704 851.689 338.256L854.57 334.26C855.069 333.568 855.611 332.909 856.194 332.287C863.737 324.233 876.38 323.819 884.434 331.361C886.93 333.699 889.044 336.415 890.697 339.409C899.414 355.193 893.684 375.055 877.899 383.771C873.738 386.069 869.077 388.396 863.915 390.751C849.225 397.454 835.128 394.84 820.784 384.231C809.704 376.036 799.816 364.678 784.937 344.587C783.881 343.161 776.194 332.698 773.984 329.736C769.873 324.226 766.552 319.955 763.393 316.168C755.684 306.931 749.192 300.971 743.053 297.902C720.902 286.827 705.71 292.264 696.93 314.377ZM627.572 317.377C618.792 295.264 603.6 289.827 581.449 300.902C573.275 304.989 565.211 314.761 554.679 331.972C552.945 334.805 551.135 337.848 548.975 341.543C548.129 342.991 547.262 344.482 546.109 346.47C546.228 346.264 543.882 350.314 543.228 351.44C529.449 375.177 521.654 386.695 512.203 395.286C499.709 406.643 487.207 408.331 473.913 398.649C451.336 382.208 447.312 363.634 462.019 343.383C468.877 333.942 482.089 331.847 491.53 338.704C494.915 341.162 497.494 344.57 498.94 348.495C499.131 349.013 498.865 349.588 498.347 349.779C497.829 349.97 497.254 349.705 497.063 349.187C495.754 345.633 493.419 342.548 490.355 340.323C481.807 334.115 469.846 336.011 463.638 344.559C449.61 363.873 453.367 381.213 475.09 397.033C487.559 406.113 499.022 404.565 510.858 393.806C520.1 385.405 527.828 373.985 541.499 350.436C542.152 349.311 544.498 345.262 544.379 345.467C545.533 343.477 546.401 341.984 547.248 340.534C549.414 336.828 551.231 333.774 552.973 330.928C563.697 313.403 571.931 303.425 580.554 299.113C603.737 287.522 620.211 293.418 629.431 316.639C629.635 317.152 629.384 317.733 628.871 317.937C628.357 318.141 627.776 317.89 627.572 317.377Z" fill="#334E62"/>
<path fill-rule="evenodd" clip-rule="evenodd" d="M628.5 316.841C643.072 318.287 652.905 322.787 658 330.341C663.095 337.895 661.428 348.228 653 361.341L628.5 316.841Z" fill="#437BA6"/>
</svg>
